<svg width="63" height="63" viewBox="0 0 63 63" fill="none" xmlns="http://www.w3.org/2000/svg">
<g id="check_circle">
<mask id="mask0_139_214" style="mask-type:alpha" maskUnits="userSpaceOnUse" x="0" y="0" width="63" height="63">
<rect id="Bounding box" width="63" height="63" fill="#D9D9D9"/>
</mask>
<g mask="url(#mask0_139_214)">
<path id="check_circle_2" d="M27.825 43.575L46.3313 25.0688L42.6562 21.3938L27.825 36.225L20.3438 28.7437L16.6687 32.4188L27.825 43.575ZM31.5 57.75C27.8687 57.75 24.4562 57.0609 21.2625 55.6828C18.0687 54.3047 15.2906 52.4344 12.9281 50.0719C10.5656 47.7094 8.69531 44.9313 7.31719 41.7375C5.93906 38.5438 5.25 35.1313 5.25 31.5C5.25 27.8687 5.93906 24.4562 7.31719 21.2625C8.69531 18.0687 10.5656 15.2906 12.9281 12.9281C15.2906 10.5656 18.0687 8.69531 21.2625 7.31719C24.4562 5.93906 27.8687 5.25 31.5 5.25C35.1313 5.25 38.5438 5.93906 41.7375 7.31719C44.9313 8.69531 47.7094 10.5656 50.0719 12.9281C52.4344 15.2906 54.3047 18.0687 55.6828 21.2625C57.0609 24.4562 57.75 27.8687 57.75 31.5C57.75 35.1313 57.0609 38.5438 55.6828 41.7375C54.3047 44.9313 52.4344 47.7094 50.0719 50.0719C47.7094 52.4344 44.9313 54.3047 41.7375 55.6828C38.5438 57.0609 35.1313 57.75 31.5 57.75ZM31.5 52.5C37.3625 52.5 42.3281 50.4656 46.3969 46.3969C50.4656 42.3281 52.5 37.3625 52.5 31.5C52.5 25.6375 50.4656 20.6719 46.3969 16.6031C42.3281 12.5344 37.3625 10.5 31.5 10.5C25.6375 10.5 20.6719 12.5344 16.6031 16.6031C12.5344 20.6719 10.5 25.6375 10.5 31.5C10.5 37.3625 12.5344 42.3281 16.6031 46.3969C20.6719 50.4656 25.6375 52.5 31.5 52.5Z" fill="#23BFAD"/>
</g>
</g>
</svg>
