<svg width="86" height="144" viewBox="0 0 86 144" fill="none" xmlns="http://www.w3.org/2000/svg">
<path d="M86 39.8906C86 61.9216 43 111 43 111C43 111 0 61.9216 0 39.8906C0 29.311 4.53035 19.1646 12.5944 11.6837C20.6585 4.20275 31.5957 0 43 0C54.4043 0 65.3415 4.20275 73.4056 11.6837C81.4697 19.1646 86 29.311 86 39.8906Z" fill="#128AA5"/>
<path d="M43.5 144C50.9558 144 57 138.404 57 131.5C57 124.596 50.9558 119 43.5 119C36.0441 119 30 124.596 30 131.5C30 138.404 36.0441 144 43.5 144Z" fill="#128AA5"/>
</svg>
